# xmcd CD database file
#
# Track frame offsets:
#	150
#	19287
#	35710
#	60222
#	82165
#	95240
#	116697
#	130347
#	155467
#	170822
#	187397
#	195952
#	210537
#	224695
#	243627
#	263962
#	277010
#	304817
#	316605
#
# Disc length: 4416 seconds
#
# Revision: 4
# Processed by: cddbd v1.5.2PL0 Copyright (c) Steve Scherf et al.
# Submitted via: CDex 1.77
#
DISCID=27113e13
DTITLE=Various Artist - The Alligator Records 25th Anniversary Collection [CD1)
DYEAR=1996
DGENRE=Blues
TTITLE0=Son Seals - Don't Pick Me For Your Fool
TTITLE1=James Cotton - Digging My Potatoes
TTITLE2=Albert Collins - Something To Remember You By (ft. Johnny Copeland)
TTITLE3=William Clarke - The Complainer's Boogie Woogie
TTITLE4=Charlie Musselwhite - Stingaree
TTITLE5=Lil' Ed and The Blues Imperials - It's Alright
TTITLE6=C.J. Chenier and The Red Hot Louisiana Band - Man Smart, Woman Smarter
TTITLE7=Maurice John Vaughn - I Want to Be Your Spy
TTITLE8=Floyd Dixon - Hey Bartender
TTITLE9=Eddie Shaw and The Wolf Gang - Sitting On Top Of The World
TTITLE10=Cephas and Wiggins - Action Man
TTITLE11=Kenny Neal - Bayou Blood
TTITLE12=Long John Hunter - T-Bone Intentions
TTITLE13=Saffire-The Uppity Blues Women - T'aint Nobody's Business
TTITLE14=Lonnie Mack - If You Have To Know (ft. Stevie Ray Vaughn)
TTITLE15=Billy Boy Arnold - Been Gone Too Long
TTITLE16=Tinsley Ellis - A Quitter Never Wins
TTITLE17=Sugar Blue - I Ain't Got You
TTITLE18=Professor Longhair - Crawfish Fiesta
EXTD=YEAR: 1996
EXTT0=
EXTT1=
EXTT2=
EXTT3=
EXTT4=
EXTT5=
EXTT6=
EXTT7=
EXTT8=
EXTT9=
EXTT10=
EXTT11=
EXTT12=
EXTT13=
EXTT14=
EXTT15=
EXTT16=
EXTT17=
EXTT18=
PLAYORDER=
